<svg width="48" height="48" viewBox="0 0 48 48" fill="none" xmlns="http://www.w3.org/2000/svg">
<path fill-rule="evenodd" clip-rule="evenodd" d="M22 3.00098C22 1.34412 20.657 0.000976562 19 0.000976562H3C1.343 0.000976562 0 1.34412 0 3.00098V19C0 20.6569 1.343 22 3 22H19C20.657 22 22 20.6569 22 19V3.00098ZM22 29C22 27.3431 20.657 26 19 26H3C1.343 26 0 27.3431 0 29V45.001C0 46.6578 1.343 48.001 3 48.001H19C20.657 48.001 22 46.6578 22 45.001V29ZM29 0.000976562C27.343 0.000976562 26 1.34412 26 3.00098V19C26 20.6569 27.343 22 29 22H45C46.657 22 48 20.6569 48 19V3.00098C48 1.34412 46.657 0.000976562 45 0.000976562H29ZM48 29C48 27.3431 46.657 26 45 26H29C27.343 26 26 27.3431 26 29V45.001C26 46.6578 27.343 48.001 29 48.001H45C46.657 48.001 48 46.6578 48 45.001V29ZM45 37C45 41.4183 41.418 45 37 45C32.582 45 29 41.4183 29 37C29 32.5817 32.582 29 37 29C41.418 29 45 32.5817 45 37ZM37 43C40.314 43 43 40.3137 43 37C43 33.6863 40.314 31 37 31C33.686 31 31 33.6863 31 37C31 40.3137 33.686 43 37 43ZM38.732 7L37 4L35.268 7L30.938 14.5L29.206 17.5H32.67H41.33H44.794L43.062 14.5L38.732 7ZM35.845 10L37 8L38.155 10L40.175 13.5L41.33 15.5H39.021H34.979H32.67L33.825 13.5L35.845 10Z" fill="#697C8C"/>
<path fill-rule="evenodd" clip-rule="evenodd" d="M19.548 21.9501L10.048 2H0.171005C0.0600052 2.31305 0 2.64998 0 3.00098V19C0 20.46 1.043 21.6765 2.425 21.9449L6.119 13.6471V22H19C19.187 22 19.37 21.9829 19.548 21.9501ZM21.83 46H15.286L6.119 26.5882V26H19C20.657 26 22 27.3431 22 29V45.001C22 45.3512 21.94 45.6875 21.83 46ZM26 35.5L31 46H26.17C26.06 45.6875 26 45.3512 26 45.001V35.5Z" fill="white"/>
<path d="M20 29C20 28.4476 19.5526 28 19 28H3C2.44741 28 2 28.4476 2 29V45.001C2 45.5534 2.44745 46.001 3 46.001H19C19.5526 46.001 20 45.5534 20 45.001V29ZM46 29C46 28.4476 45.5526 28 45 28H29C28.4474 28 28 28.4476 28 29V45.001C28 45.5534 28.4474 46.001 29 46.001H45C45.5526 46.001 46 45.5534 46 45.001V29ZM20 3.00098C20 2.44855 19.5526 2.00098 19 2.00098H3C2.44742 2.00098 2 2.44855 2 3.00098V19C2 19.5524 2.44742 20 3 20H19C19.5526 20 20 19.5524 20 19V3.00098ZM46 3.00098C46 2.44855 45.5526 2.00098 45 2.00098H29C28.4474 2.00098 28 2.44855 28 3.00098V19C28 19.5524 28.4474 20 29 20H45C45.5526 20 46 19.5524 46 19V3.00098ZM22 45.001C22 46.6576 20.6574 48.001 19 48.001H3C1.34255 48.001 0 46.6576 0 45.001V29C0 27.3432 1.34258 26 3 26H19C20.6574 26 22 27.3432 22 29V45.001ZM48 45.001C48 46.6576 46.6574 48.001 45 48.001H29C27.3426 48.001 26 46.6576 26 45.001V29C26 27.3432 27.3426 26 29 26H45C46.6574 26 48 27.3432 48 29V45.001ZM22 19C22 20.6568 20.6574 22 19 22H3C1.34259 22 2.06088e-06 20.6568 0 19V3.00098C0 1.34426 1.34258 0.000976562 3 0.000976562H19C20.6574 0.000976562 22 1.34426 22 3.00098V19ZM48 19C48 20.6568 46.6574 22 45 22H29C27.3426 22 26 20.6568 26 19V3.00098C26 1.34426 27.3426 0.000976562 29 0.000976562H45C46.6574 0.000976562 48 1.34426 48 3.00098V19Z" fill="#697C8C"/>
<path d="M37 8L41.33 15.5H32.67L37 8Z" fill="#6556D9"/>
<path d="M37 43C40.3137 43 43 40.3137 43 37C43 33.6863 40.3137 31 37 31C33.6863 31 31 33.6863 31 37C31 40.3137 33.6863 43 37 43Z" fill="#6556D9"/>
</svg>
