<svg width="48" height="48" viewBox="0 0 48 48" fill="none" xmlns="http://www.w3.org/2000/svg">
<path fill-rule="evenodd" clip-rule="evenodd" d="M0 44C0 46.2091 1.79086 48 4 48H44C46.2091 48 48 46.2091 48 44V4C48 1.79086 46.2091 0 44 0H4C1.79086 0 0 1.79086 0 4V44ZM41 24C41 14.6112 33.3888 7 24 7C14.6112 7 7 14.6112 7 24C7 33.3888 14.6112 41 24 41C33.3888 41 41 33.3888 41 24Z" fill="#697C8C"/>
<path fill-rule="evenodd" clip-rule="evenodd" d="M10.3333 2H23.6667L26.1566 7.13549C25.4503 7.04608 24.7305 7 24 7C14.6112 7 7.00002 14.6112 7.00002 24C7.00002 27.8086 8.25249 31.3248 10.368 34.1589L5.00006 46H1.00005L0.999957 21.25L2.33333 18.5L4.99999 13L10.3333 2ZM26.5076 40.8163L29 46H45L38.5769 32.7523C36.0127 37.0137 31.6327 40.0586 26.5076 40.8163Z" fill="white"/>
<path d="M24 38C31.732 38 38 31.732 38 24C38 16.268 31.732 10 24 10C16.268 10 10 16.268 10 24C10 31.732 16.268 38 24 38Z" fill="#6556D9"/>
<path fill-rule="evenodd" clip-rule="evenodd" d="M44 0C46.2091 0 48 1.79089 48 4V44C48 46.2091 46.2091 48 44 48H4C1.79089 48 0 46.2091 0 44V4C0 1.79089 1.79089 0 4 0H44ZM44 2H4C3.83472 2 3.67419 2.01917 3.51843 2.05762C3.41772 2.08252 3.31897 2.11536 3.22217 2.15637C3.11731 2.20068 3.0177 2.25305 2.92322 2.3136C2.80225 2.39099 2.68982 2.48181 2.58582 2.58582C2.48181 2.68982 2.39099 2.80225 2.3136 2.92322C2.25305 3.0177 2.20068 3.11731 2.15637 3.22217C2.11536 3.31885 2.08252 3.41772 2.05762 3.51843C2.01917 3.67419 2 3.83472 2 4V44C2 44.1653 2.01917 44.3258 2.05762 44.4816C2.08252 44.5823 2.11536 44.681 2.15637 44.7778C2.20068 44.8826 2.25305 44.9822 2.31348 45.0765C2.39099 45.1976 2.48169 45.3102 2.58582 45.4142C2.68982 45.5182 2.80225 45.609 2.92334 45.6864C3.0177 45.7469 3.11731 45.7993 3.22217 45.8436C3.31897 45.8846 3.41772 45.9175 3.51843 45.9424C3.67419 45.9808 3.83472 46 4 46H44C44.1653 46 44.3258 45.9808 44.4816 45.9424C44.5823 45.9175 44.681 45.8846 44.7778 45.8436C44.8826 45.7993 44.9821 45.7471 45.0765 45.6866C45.1975 45.6091 45.3102 45.5183 45.4142 45.4142C45.5183 45.3102 45.6091 45.1976 45.6865 45.0765C45.7469 44.9822 45.7993 44.8826 45.8436 44.7778C45.8846 44.681 45.9175 44.5823 45.9424 44.4814C45.9808 44.3257 46 44.1653 46 44V4C46 3.83472 45.9808 3.67419 45.9424 3.51843C45.9175 3.41772 45.8846 3.31897 45.8436 3.22217C45.7999 3.11885 45.7484 3.02052 45.689 2.92717L45.6865 2.92334C45.609 2.80249 45.5182 2.6897 45.4142 2.58582C45.3102 2.48181 45.1976 2.39099 45.0767 2.31348C44.9822 2.25305 44.8827 2.20068 44.7778 2.15637C44.681 2.11536 44.5823 2.08252 44.4816 2.05762C44.3258 2.01917 44.1653 2 44 2ZM26.6779 5.18738C25.7941 5.0625 24.9014 5 24 5C23.0984 5 22.2057 5.0625 21.3218 5.18738C20.9374 5.2417 20.5541 5.30798 20.173 5.38599C19.5555 5.51233 18.9475 5.6687 18.3488 5.85498C17.7581 6.03882 17.1763 6.25171 16.6038 6.4939C16.1129 6.70154 15.6327 6.92896 15.1627 7.17615C14.5492 7.49902 13.9535 7.85559 13.3755 8.24609C12.9064 8.56299 12.4531 8.89941 12.0156 9.25537C11.511 9.66602 11.0275 10.1025 10.5649 10.5649C10.1027 11.0273 9.66614 11.5107 9.25562 12.0153C8.89966 12.4528 8.56311 12.9062 8.24609 13.3755C7.85804 13.9499 7.50336 14.5419 7.18205 15.1516C7.17992 15.1556 7.17779 15.1596 7.17566 15.1637C6.92859 15.6333 6.70142 16.1133 6.4939 16.6038C6.25183 17.176 6.03894 17.7574 5.85522 18.3479C5.66882 18.9469 5.51233 19.5553 5.38599 20.173C5.30786 20.5544 5.2417 20.9377 5.18726 21.3226C5.06238 22.2063 5 23.0988 5 24C5 24.9015 5.0625 25.7942 5.18738 26.6781C5.2417 27.0627 5.30798 27.4457 5.38599 27.827C5.51233 28.4443 5.66858 29.0523 5.85474 29.6508C6.03858 30.2416 6.25171 30.8236 6.4939 31.3962C6.70166 31.8873 6.9292 32.3679 7.17664 32.838C7.49927 33.4513 7.85583 34.0468 8.24609 34.6245C8.56299 35.0935 8.89929 35.5468 9.25525 35.9841C9.66589 36.4889 10.1024 36.9725 10.5649 37.4351C11.0277 37.8977 11.5115 38.3345 12.0164 38.7452C12.4536 39.101 12.9066 39.4371 13.3755 39.7539C13.9534 40.1443 14.5491 40.501 15.1626 40.8237C15.6326 41.071 16.1129 41.2985 16.6038 41.5061C17.1754 41.7479 17.7562 41.9606 18.3462 42.1443C18.9457 42.3309 19.5547 42.4875 20.173 42.614C20.5544 42.6921 20.9376 42.7583 21.3224 42.8127C22.2061 42.9375 23.0986 43 24 43C24.9015 43 25.7941 42.9375 26.6779 42.8126C27.0626 42.7583 27.4457 42.692 27.827 42.614C28.4448 42.4875 29.0532 42.3312 29.6523 42.1448C30.2426 41.9609 30.8239 41.748 31.3962 41.5061C31.8808 41.3011 32.3552 41.0768 32.8195 40.8332C32.8252 40.8302 32.8308 40.8272 32.8365 40.8242C33.4503 40.5013 34.0463 40.1445 34.6245 39.7539C35.0938 39.4369 35.5471 39.1003 35.9847 38.7444C36.4893 38.3339 36.9727 37.8973 37.4351 37.4351C37.8977 36.9724 38.3343 36.4887 38.745 35.9838C39.1008 35.5465 39.4371 35.0934 39.7539 34.6245C40.1444 34.0465 40.5011 33.4507 40.8239 32.8372C41.071 32.3673 41.2985 31.887 41.5061 31.3962C41.7479 30.8245 41.9607 30.2435 42.1443 29.6536C42.3309 29.0541 42.4875 28.4452 42.614 27.827C42.692 27.4457 42.7583 27.0626 42.8126 26.6779C42.9375 25.7941 43 24.9015 43 24C43 23.0985 42.9375 22.2059 42.8126 21.3221C42.7583 20.9374 42.692 20.5543 42.614 20.173C42.4877 19.5553 42.3312 18.9469 42.1448 18.3479C42.1384 18.3272 42.1319 18.3064 42.1254 18.2859C41.946 17.7166 41.7396 17.1559 41.5061 16.6038C41.2987 16.1135 41.0717 15.6338 40.8247 15.1644C40.5017 14.5503 40.1448 13.954 39.7539 13.3755C39.4369 12.9062 39.1003 12.4528 38.7443 12.0153C38.3337 11.5107 37.8973 11.0273 37.4351 10.5649C36.9728 10.1028 36.4895 9.66638 35.9851 9.25598C35.5474 8.89978 35.0939 8.56323 34.6245 8.24609C34.0463 7.85547 33.4502 7.49866 32.8364 7.17578C32.3668 6.92871 31.8867 6.70142 31.3962 6.4939C30.824 6.25183 30.2424 6.03894 29.652 5.85522C29.053 5.66882 28.4447 5.51233 27.827 5.38599C27.446 5.30798 27.0635 5.24182 26.6791 5.1875L26.6779 5.18738ZM41 24C41 14.6112 33.3888 7 24 7C14.6112 7 7 14.6112 7 24C7 33.3888 14.6112 41 24 41C33.3888 41 41 33.3888 41 24Z" fill="#697C8C"/>
</svg>
