<svg viewBox="0 0 48 48" xmlns="http://www.w3.org/2000/svg" xmlns:xlink="http://www.w3.org/1999/xlink" width="48.000000" height="48.000000" fill="none">
	<rect id="MCP" width="48.000000" height="48.000000" x="0.000000" y="0.000000" fill="rgb(255,255,255)" fill-opacity="0" />
	<g id="Сочетание 13">
		<path id="Форма 37(Граница)" d="M1.01721 1L1.01721 47L5.01721 47L5.01721 5L7.00001 5L7.00001 46.9597L17 46.9597L17 5L19 5L19 47L23 47L23 1L13 1L13 42.9597L11 42.9597L11 1L1.01721 1Z" fill="rgb(0,28,170)" fill-rule="evenodd" />
		<path id="Форма 38(Граница)" d="M35.0001 46.9999L35 39L31 39L31 42.9999L29.0001 42.9999L29 5.01465L31 5.01465L31 35L35 35L35 1.01465L25 1.01465L25.0001 46.9999L35.0001 46.9999Z" fill="rgb(0,28,170)" fill-rule="evenodd" />
		<path id="Форма 39(Граница)" d="M37 1L37 47L41 47L41 43.0001L47 43.0001L47 1L37 1ZM41 39.0001L43 39.0001L43 5L41 5L41 39.0001Z" fill="rgb(0,28,170)" fill-rule="evenodd" />
	</g>
	<rect id="Прямоугольник 19" width="44.000000" height="50.028809" x="0.000000" y="0.000000" fill="rgb(33,63,215)" style="mix-blend-mode:lighten" transform="matrix(0.579383,0.815055,-0.815055,0.579383,8.77625,-36.5647)" />
	<rect id="Прямоугольник 20" width="11.680481" height="65.759277" x="0.000000" y="0.000000" fill="rgb(88,111,231)" style="mix-blend-mode:lighten" transform="matrix(0.579383,0.815055,-0.815055,0.579383,44.0829,-7.81909)" />
	<rect id="Прямоугольник 21" width="11.680481" height="47.569336" x="0.000000" y="0.000000" fill="rgb(105,124,140)" style="mix-blend-mode:lighten" transform="matrix(0.579383,0.815055,-0.815055,0.579383,50.1903,21.5022)" />
</svg>
