<svg width="48" height="48" viewBox="0 0 48 48" fill="none" xmlns="http://www.w3.org/2000/svg">
<path fill-rule="evenodd" clip-rule="evenodd" d="M18 47.2439V20H47.668C45.764 8.64915 35.892 0 24 0C10.745 0 0 10.7452 0 24C0 35.183 7.649 44.5796 18 47.2439Z" fill="#697C8C"/>
<path fill-rule="evenodd" clip-rule="evenodd" d="M0.785995 30.1161L8.119 13.6469V26.5881L17.286 45.9999H18V19.9999H20.619L12.492 2.93359C5.048 7.00873 0 14.9148 0 23.9999C0 26.1136 0.272995 28.1635 0.785995 30.1161Z" fill="white"/>
<path d="M24 0C35.892 0 45.764 8.64911 47.668 19.9999H18V47.2439C7.649 44.5796 0 35.1828 0 23.9999C0 10.7451 10.745 0 24 0ZM24 1.99999C11.8496 1.99999 2 11.8497 2 23.9999C2 33.3256 7.80482 41.2993 16 44.4998V17.9999H45.1719C42.561 8.76627 34.0692 1.99999 24 1.99999Z" fill="#697C8C"/>
<path d="M21 30V23H48V30H21Z" fill="#6556D9"/>
<path d="M21 39V32H48V39H21Z" fill="#6556D9"/>
<path d="M21 48V41H48V48H21Z" fill="#6556D9"/>
</svg>
