<svg viewBox="0 0 48 48" xmlns="http://www.w3.org/2000/svg" xmlns:xlink="http://www.w3.org/1999/xlink" width="48.000000" height="48.000000" fill="none">
	<mask id="mask_10" width="18.782824" height="18.707321" x="12.000000" y="9.000000" maskUnits="userSpaceOnUse">
		<g filter="url(#pixso_custom_mask_type_alpha)">
			<path id="Форма 24" d="M23.2695 9L12 12.7415L12.0003 23.9658L19.5133 27.7073L30.7828 23.9658L30.7828 12.7414L30.7828 12.7414L30.7828 12.7414L23.2695 9Z" fill="rgb(240.201,239.961,239.961)" fill-rule="evenodd" />
		</g>
	</mask>
	<mask id="mask_9" width="14.608863" height="14.550137" x="3.000000" y="10.000000" maskUnits="userSpaceOnUse">
		<g filter="url(#pixso_custom_mask_type_alpha)">
			<path id="Форма 24" d="M11.7652 10L3 12.9101L3.00025 21.6401L8.84367 24.5501L17.6089 21.6401L17.6089 12.91L17.6089 12.91L17.6089 12.91L11.7652 10Z" fill="rgb(240.201,239.961,239.961)" fill-rule="evenodd" />
		</g>
	</mask>
	<mask id="mask_8" width="10.434902" height="10.392957" x="35.000000" y="10.000000" maskUnits="userSpaceOnUse">
		<g filter="url(#pixso_custom_mask_type_alpha)">
			<path id="Форма 24" d="M41.2609 10L35 12.0786L35.0002 18.3143L39.174 20.393L45.4349 18.3143L45.4349 12.0785L45.4349 12.0785L45.4349 12.0785L41.2609 10Z" fill="rgb(240.201,239.961,239.961)" fill-rule="evenodd" />
		</g>
	</mask>
	<mask id="mask_7" width="18.782824" height="18.707321" x="20.869629" y="-0.000122" maskUnits="userSpaceOnUse">
		<g filter="url(#pixso_custom_mask_type_alpha)">
			<path id="Форма 24" d="M32.1392 -0.00012207L20.8696 3.74141L20.8699 14.9657L28.3829 18.7072L39.6525 14.9657L39.6525 3.74125L39.6525 3.74125L39.6525 3.74125L32.1392 -0.00012207Z" fill="rgb(240.201,239.961,239.961)" fill-rule="evenodd" />
		</g>
	</mask>
	<mask id="mask_6" width="48.000015" height="20.786037" x="0.000000" y="10.392944" maskUnits="userSpaceOnUse">
		<g filter="url(#pixso_custom_mask_type_alpha)">
			<path id="Форма 19" d="M0 20.7859L31.3044 10.3929L48 18.7073L48 20.786L16.6956 31.179L0 22.8646L0 20.7859Z" fill="rgb(134,152,166)" fill-rule="evenodd" />
		</g>
	</mask>
	<mask id="mask_5" width="18.782824" height="18.707321" x="11.000000" y="26.000000" maskUnits="userSpaceOnUse">
		<g filter="url(#pixso_custom_mask_type_alpha)">
			<path id="Форма 24" d="M22.2695 26L11 29.7415L11.0003 40.9658L18.5133 44.7073L29.7828 40.9658L29.7828 29.7414L29.7828 29.7414L29.7828 29.7414L22.2695 26Z" fill="rgb(240.201,239.961,239.961)" fill-rule="evenodd" />
		</g>
	</mask>
	<mask id="mask_4" width="14.608863" height="14.550137" x="3.000000" y="26.000000" maskUnits="userSpaceOnUse">
		<g filter="url(#pixso_custom_mask_type_alpha)">
			<path id="Форма 24" d="M11.7652 26L3 28.9101L3.00025 37.6401L8.84367 40.5501L17.6089 37.6401L17.6089 28.91L17.6089 28.91L17.6089 28.91L11.7652 26Z" fill="rgb(240.201,239.961,239.961)" fill-rule="evenodd" />
		</g>
	</mask>
	<mask id="mask_3" width="10.434902" height="10.392957" x="34.000000" y="27.000488" maskUnits="userSpaceOnUse">
		<g filter="url(#pixso_custom_mask_type_alpha)">
			<path id="Форма 24" d="M40.2609 27.0005L34 29.0791L34.0002 35.3148L38.174 37.3934L44.4349 35.3148L44.4349 29.079L44.4349 29.079L44.4349 29.079L40.2609 27.0005Z" fill="rgb(240.201,239.961,239.961)" fill-rule="evenodd" />
		</g>
	</mask>
	<mask id="mask_2" width="18.782824" height="18.707321" x="20.869507" y="16.824951" maskUnits="userSpaceOnUse">
		<g filter="url(#pixso_custom_mask_type_alpha)">
			<path id="Форма 24" d="M32.139 16.825L20.8695 20.5665L20.8698 31.7907L28.3828 35.5323L39.6523 31.7907L39.6523 20.5663L39.6523 20.5663L39.6523 20.5663L32.139 16.825Z" fill="rgb(240.201,239.961,239.961)" fill-rule="evenodd" />
		</g>
	</mask>
	<mask id="mask_1" width="48.000015" height="20.786037" x="0.000000" y="27.214233" maskUnits="userSpaceOnUse">
		<g filter="url(#pixso_custom_mask_type_alpha)">
			<path id="Форма 19" d="M0 37.6072L31.3044 27.2142L48 35.5286L48 37.6073L16.6956 48.0003L0 39.6859L0 37.6072Z" fill="rgb(134,152,166)" fill-rule="evenodd" />
		</g>
	</mask>
	<defs>
		<filter id="pixso_custom_mask_type_alpha">
			<feColorMatrix type="matrix" values="0 0 0 0 1 0 0 0 0 1 0 0 0 0 1 0 0 0 1 0 " />
		</filter>
		<clipPath id="clipPath_1">
			<rect width="48.000000" height="20.785891" x="0.000000" y="27.214111" fill="rgb(255,255,255)" />
		</clipPath>
		<clipPath id="clipPath_2">
			<rect width="18.782608" height="18.707302" x="20.869507" y="16.824951" fill="rgb(255,255,255)" />
		</clipPath>
		<clipPath id="clipPath_3">
			<rect width="10.434783" height="10.392945" x="34.000000" y="27.000488" fill="rgb(255,255,255)" />
		</clipPath>
		<clipPath id="clipPath_4">
			<rect width="14.608696" height="14.550122" x="3.000000" y="26.000000" fill="rgb(255,255,255)" />
		</clipPath>
		<clipPath id="clipPath_5">
			<rect width="18.782608" height="18.707302" x="11.000000" y="26.000000" fill="rgb(255,255,255)" />
		</clipPath>
		<clipPath id="clipPath_6">
			<rect width="48.000000" height="20.785891" x="0.000000" y="10.392822" fill="rgb(255,255,255)" />
		</clipPath>
		<clipPath id="clipPath_7">
			<rect width="18.782608" height="18.707302" x="20.869629" y="-0.000122" fill="rgb(255,255,255)" />
		</clipPath>
		<clipPath id="clipPath_8">
			<rect width="10.434783" height="10.392945" x="35.000000" y="10.000000" fill="rgb(255,255,255)" />
		</clipPath>
		<clipPath id="clipPath_9">
			<rect width="14.608696" height="14.550122" x="3.000000" y="10.000000" fill="rgb(255,255,255)" />
		</clipPath>
		<clipPath id="clipPath_10">
			<rect width="18.782608" height="18.707302" x="12.000000" y="9.000000" fill="rgb(255,255,255)" />
		</clipPath>
	</defs>
	<mask id="mask_0" width="48.000000" height="48.000000" x="0.000000" y="0.000000" maskUnits="userSpaceOnUse">
		<g filter="url(#pixso_custom_mask_type_alpha)">
			<g id="clip0_1186_4800">
				<rect id="rect" width="48.000000" height="48.000000" x="0.000000" y="0.000000" fill="rgb(0,0,0)" />
			</g>
		</g>
	</mask>
	<rect id="Склад" width="48.000000" height="48.000000" x="0.000000" y="0.000000" />
	<g id="mask" mask="url(#mask_0)" />
	<g id="Сочетание 7">
		<g id="Площадка" customFrame="url(#clipPath_1)" mask="url(#mask_1)">
			<rect id="Площадка" width="48.000000" height="20.785891" x="0.000000" y="27.214111" />
			<path id="Прямоугольник 1" d="M0 37.6071L31.3043 27.2141L48 35.5285L16.6957 45.9214L0 37.6071Z" fill="rgb(171,184,194)" fill-rule="evenodd" />
			<path id="Форма 8" d="M16.6957 45.9215L16.6957 48.0001L48 37.6072L48 35.5286L16.6957 45.9215Z" fill="rgb(90.8075,108.872,124.085)" fill-rule="evenodd" />
			<path id="Форма 11" d="M0 0L32.9846 0" stroke="rgb(198,211,221)" stroke-linecap="round" stroke-width="0.100000001" transform="matrix(0.949063,-0.315085,0.315085,0.949063,16.6957,45.9214)" />
			<path id="Форма 9" d="M0 37.6071L0 39.6856L16.6957 48L16.6957 45.9214L0 37.6071Z" fill="rgb(134,152,166)" fill-rule="evenodd" />
			<path id="Форма 10" d="M0 0L18.6514 0" stroke="rgb(197.76,210.81,220.848)" stroke-linecap="round" stroke-width="0.100000001" transform="matrix(0.895145,0.445776,-0.445776,0.895145,0,37.6071)" />
		</g>
		<g id="Сочетание 5">
			<g id="Сочетание 8" customFrame="url(#clipPath_2)" mask="url(#mask_2)">
				<rect id="Сочетание 8" width="18.782608" height="18.707302" x="20.869507" y="16.824951" />
				<path id="Форма 8" d="M28.3826 24.3079L28.3826 35.5322L39.6521 31.7908L39.6521 20.5664L28.3826 24.3079Z" fill="rgb(214,214,214)" fill-rule="evenodd" />
				<path id="Форма 9" d="M20.8695 20.5664L20.8695 31.7908L28.3825 35.5322L28.3825 24.3079L20.8695 20.5664Z" fill="rgb(222,222,222)" fill-rule="evenodd" />
				<path id="Прямоугольник 3" d="M20.8695 20.5664L32.1391 16.825L39.6521 20.5664L28.3826 24.3079L20.8695 20.5664Z" fill="rgb(240.201,239.961,239.961)" fill-rule="evenodd" />
				<path id="Форма 21" d="M0 0L11.8744 0" stroke="rgb(255,254.745,254.745)" stroke-linecap="round" stroke-width="0.100000001" transform="matrix(0.949061,-0.315092,0.315092,0.949061,28.3824,24.3081)" />
				<path id="Форма 20" d="M0 0L8.39307 0" stroke="rgb(255,254.745,254.745)" stroke-linecap="round" stroke-width="0.100000001" transform="matrix(0.895139,0.445787,-0.445787,0.895139,20.8695,20.5665)" />
			</g>
			<g id="Сочетание 2" customFrame="url(#clipPath_3)" mask="url(#mask_3)">
				<rect id="Сочетание 2" width="10.434783" height="10.392945" x="34.000000" y="27.000488" />
				<path id="Форма 8" d="M38.1738 31.1577L38.1738 37.3935L44.4347 35.3149L44.4347 29.0791L38.1738 31.1577Z" fill="rgb(0,28,170)" fill-rule="evenodd" />
				<path id="Форма 9" d="M34 29.0791L34 35.3149L38.1739 37.3935L38.1739 31.1577L34 29.0791Z" fill="rgb(33,63,215)" fill-rule="evenodd" />
				<path id="Прямоугольник 3" d="M34 29.0791L40.2609 27.0005L44.4348 29.0791L38.1739 31.1577L34 29.0791Z" fill="rgb(88,111,231)" fill-rule="evenodd" />
				<path id="Форма 21" d="M0 0L6.59689 0" stroke="rgb(168,178,233)" stroke-linecap="round" stroke-width="0.100000001" transform="matrix(0.949061,-0.315092,0.315092,0.949061,38.1738,31.1577)" />
				<path id="Форма 20" d="M0 0L4.66282 0" stroke="rgb(168,178,233)" stroke-linecap="round" stroke-width="0.100000001" transform="matrix(0.895139,0.445787,-0.445787,0.895139,34,29.0791)" />
			</g>
			<g id="Сочетание 3" customFrame="url(#clipPath_4)" mask="url(#mask_4)">
				<rect id="Сочетание 3" width="14.608696" height="14.550122" x="3.000000" y="26.000000" />
				<path id="Форма 8" d="M8.84338 31.8201L8.84338 40.5501L17.6086 37.6401L17.6086 28.91L8.84338 31.8201Z" fill="rgb(0,28,170)" fill-rule="evenodd" />
				<path id="Форма 9" d="M3 28.91L3 37.6401L8.84348 40.5501L8.84348 31.8201L3 28.91Z" fill="rgb(33,63,215)" fill-rule="evenodd" />
				<path id="Прямоугольник 3" d="M3 28.91L11.7652 26L17.6087 28.91L8.84348 31.82L3 28.91Z" fill="rgb(88,111,231)" fill-rule="evenodd" />
				<path id="Форма 21" d="M0 0L9.23565 0" stroke="rgb(168,178,233)" stroke-linecap="round" stroke-width="0.100000001" transform="matrix(0.949061,-0.315092,0.315092,0.949061,8.84338,31.8202)" />
				<path id="Форма 20" d="M0 0L6.52795 0" stroke="rgb(168,178,233)" stroke-linecap="round" stroke-width="0.100000001" transform="matrix(0.895139,0.445787,-0.445787,0.895139,3,28.9102)" />
			</g>
			<g id="Сочетание 4" customFrame="url(#clipPath_5)" mask="url(#mask_5)">
				<rect id="Сочетание 4" width="18.782608" height="18.707302" x="11.000000" y="26.000000" />
				<path id="Форма 8" d="M18.5131 33.4829L18.5131 44.7073L29.7826 40.9658L29.7826 29.7415L18.5131 33.4829Z" fill="rgb(233.371,233.137,233.137)" fill-rule="evenodd" />
				<path id="Форма 9" d="M11 29.7415L11 40.9658L18.513 44.7073L18.513 33.4829L11 29.7415Z" fill="rgb(241.339,241.098,241.098)" fill-rule="evenodd" />
				<path id="Прямоугольник 3" d="M11 29.7415L22.2696 26L29.7826 29.7415L18.513 33.4829L11 29.7415Z" fill="rgb(240.201,239.961,239.961)" fill-rule="evenodd" />
				<path id="Форма 21" d="M0 0L11.8744 0" stroke="rgb(255,254.745,254.745)" stroke-linecap="round" stroke-width="0.100000001" transform="matrix(0.949061,-0.315092,0.315092,0.949061,18.5129,33.4832)" />
				<path id="Форма 20" d="M0 0L8.39307 0" stroke="rgb(255,254.745,254.745)" stroke-linecap="round" stroke-width="0.100000001" transform="matrix(0.895139,0.445787,-0.445787,0.895139,11,29.7416)" />
			</g>
		</g>
		<g id="Площадка" customFrame="url(#clipPath_6)" mask="url(#mask_6)">
			<rect id="Площадка" width="48.000000" height="20.785891" x="0.000000" y="10.392822" />
			<path id="Прямоугольник 1" d="M0 20.7858L31.3043 10.3928L48 18.7072L16.6957 29.1001L0 20.7858Z" fill="rgb(171,184,194)" fill-rule="evenodd" />
			<path id="Форма 8" d="M16.6957 29.1001L16.6957 31.1787L48 20.7857L48 18.7072L16.6957 29.1001Z" fill="rgb(90.8075,108.872,124.085)" fill-rule="evenodd" />
			<path id="Форма 11" d="M0 0L32.9846 0" stroke="rgb(198,211,221)" stroke-linecap="round" stroke-width="0.100000001" transform="matrix(0.949063,-0.315085,0.315085,0.949063,16.6957,29.1001)" />
			<path id="Форма 9" d="M0 20.7858L0 22.8644L16.6957 31.1787L16.6957 29.1001L0 20.7858Z" fill="rgb(134,152,166)" fill-rule="evenodd" />
			<path id="Форма 10" d="M0 0L18.6514 0" stroke="rgb(197.76,210.81,220.848)" stroke-linecap="round" stroke-width="0.100000001" transform="matrix(0.895145,0.445776,-0.445776,0.895145,0,20.7858)" />
		</g>
		<g id="Сочетание 6">
			<g id="Сочетание 1" customFrame="url(#clipPath_7)" mask="url(#mask_7)">
				<rect id="Сочетание 1" width="18.782608" height="18.707302" x="20.869629" y="-0.000122" />
				<path id="Форма 8" d="M28.3827 7.48279L28.3827 18.7072L39.6523 14.9657L39.6523 3.74133L28.3827 7.48279Z" fill="rgb(214.059,213.977,213.977)" fill-rule="evenodd" />
				<path id="Форма 9" d="M20.8696 3.74133L20.8696 14.9657L28.3827 18.7072L28.3827 7.48279L20.8696 3.74133Z" fill="rgb(222.287,221.686,221.686)" fill-rule="evenodd" />
				<path id="Прямоугольник 3" d="M20.8696 3.74134L32.1392 -0.00012207L39.6522 3.74134L28.3827 7.4828L20.8696 3.74134Z" fill="rgb(234.529,234.488,234.488)" fill-rule="evenodd" />
				<path id="Форма 21" d="M0 0L11.8744 0" stroke="rgb(255,254.745,254.745)" stroke-linecap="round" stroke-width="0.100000001" transform="matrix(0.949061,-0.315092,0.315092,0.949061,28.3826,7.48291)" />
				<path id="Форма 20" d="M0 0L8.39307 0" stroke="rgb(255,254.745,254.745)" stroke-linecap="round" stroke-width="0.100000001" transform="matrix(0.895139,0.445787,-0.445787,0.895139,20.8696,3.74146)" />
			</g>
			<g id="Сочетание 2" customFrame="url(#clipPath_8)" mask="url(#mask_8)">
				<rect id="Сочетание 2" width="10.434783" height="10.392945" x="35.000000" y="10.000000" />
				<path id="Форма 8" d="M39.174 14.1572L39.174 20.393L45.4348 18.3144L45.4348 12.0786L39.174 14.1572Z" fill="rgb(233.371,233.137,233.137)" fill-rule="evenodd" />
				<path id="Форма 9" d="M35 12.0786L35 18.3144L39.1739 20.393L39.1739 14.1572L35 12.0786Z" fill="rgb(241.339,241.098,241.098)" fill-rule="evenodd" />
				<path id="Прямоугольник 3" d="M35 12.0786L41.2609 10L45.4348 12.0786L39.1739 14.1572L35 12.0786Z" fill="rgb(240.201,239.961,239.961)" fill-rule="evenodd" />
				<path id="Форма 21" d="M0 0L6.59689 0" stroke="rgb(255,254.745,254.745)" stroke-linecap="round" stroke-width="0.100000001" transform="matrix(0.949061,-0.315092,0.315092,0.949061,39.1738,14.1572)" />
				<path id="Форма 20" d="M0 0L4.66282 0" stroke="rgb(255,254.745,254.745)" stroke-linecap="round" stroke-width="0.100000001" transform="matrix(0.895139,0.445787,-0.445787,0.895139,35,12.0786)" />
			</g>
			<g id="Сочетание 3" customFrame="url(#clipPath_9)" mask="url(#mask_9)">
				<rect id="Сочетание 3" width="14.608696" height="14.550122" x="3.000000" y="10.000000" />
				<path id="Форма 8" d="M8.84351 15.8201L8.84351 24.5501L17.6087 21.6401L17.6087 12.91L8.84351 15.8201Z" fill="rgb(233.371,233.137,233.137)" fill-rule="evenodd" />
				<path id="Форма 9" d="M3 12.91L3 21.6401L8.84348 24.5501L8.84348 15.8201L3 12.91Z" fill="rgb(241.339,241.098,241.098)" fill-rule="evenodd" />
				<path id="Прямоугольник 3" d="M3 12.91L11.7652 10L17.6087 12.91L8.84348 15.82L3 12.91Z" fill="rgb(240.201,239.961,239.961)" fill-rule="evenodd" />
				<path id="Форма 21" d="M0 0L9.23565 0" stroke="rgb(255,254.745,254.745)" stroke-linecap="round" stroke-width="0.100000001" transform="matrix(0.949061,-0.315092,0.315092,0.949061,8.84338,15.8202)" />
				<path id="Форма 20" d="M0 0L6.52795 0" stroke="rgb(255,254.745,254.745)" stroke-linecap="round" stroke-width="0.100000001" transform="matrix(0.895139,0.445787,-0.445787,0.895139,3,12.91)" />
			</g>
			<g id="Сочетание 4" customFrame="url(#clipPath_10)" mask="url(#mask_10)">
				<rect id="Сочетание 4" width="18.782608" height="18.707302" x="12.000000" y="9.000000" />
				<path id="Форма 8" d="M19.5131 16.4829L19.5131 27.7073L30.7826 23.9658L30.7826 12.7415L19.5131 16.4829Z" fill="rgb(0,28,170)" fill-rule="evenodd" />
				<path id="Форма 9" d="M12 12.7415L12 23.9658L19.513 27.7073L19.513 16.4829L12 12.7415Z" fill="rgb(33,63,215)" fill-rule="evenodd" />
				<path id="Прямоугольник 3" d="M12 12.7415L23.2696 9L30.7826 12.7415L19.513 16.4829L12 12.7415Z" fill="rgb(88,111,231)" fill-rule="evenodd" />
				<path id="Форма 21" d="M0 0L11.8744 0" stroke="rgb(168.068,178.455,232.646)" stroke-linecap="round" stroke-width="0.100000001" transform="matrix(0.949061,-0.315092,0.315092,0.949061,19.5129,16.483)" />
				<path id="Форма 20" d="M0 0L8.39307 0" stroke="rgb(168,178,233)" stroke-linecap="round" stroke-width="0.100000001" transform="matrix(0.895139,0.445787,-0.445787,0.895139,12,12.7416)" />
			</g>
		</g>
	</g>
</svg>
