<svg width="48" height="48" viewBox="0 0 48 48" fill="none" xmlns="http://www.w3.org/2000/svg">
  <path d="M44 0.989258H4C1.79086 0.989258 0 2.78012 0 4.98926V44.9893C0 47.1984 1.79086 48.9893 4 48.9893H44C46.2091 48.9893 48 47.1984 48 44.9893V4.98926C48 2.78012 46.2091 0.989258 44 0.989258Z" fill="currentColor"/>
  <path d="M27.5898 45.6533H24.125L21.4385 4.34668H30.3545L27.5898 45.6533Z" fill="white"/>
  <path d="M20.249 12.791L20.7979 13.3389L13.8867 25.0195L20.7979 36.6992L18.4785 39.0176L4.59961 26.9717L2.06348 24.9941L4.61914 23.1221L18.4775 11.0176L20.249 12.791Z" fill="white"/>
  <path d="M45.8818 23.5117V26.4883L31.8047 31.7998V18.2012L45.8818 23.5117Z" fill="white"/>
</svg>